<?xml version="1.0" encoding="UTF-8" standalone="no"?>
<!-- Created with Inkscape (http://www.inkscape.org/) -->

<svg
   version="1.1"
   id="svg870"
   width="1280"
   height="672"
   viewBox="0 0 1280 672"
   sodipodi:docname="epfl-logo-margin.png.svg"
   inkscape:version="1.1.2 (0a00cf5339, 2022-02-04)"
   inkscape:export-filename="/home/nborboen/Dev/mastodon.ops/media/EPFL-logo.png"
   inkscape:export-xdpi="90"
   inkscape:export-ydpi="90"
   xmlns:inkscape="http://www.inkscape.org/namespaces/inkscape"
   xmlns:sodipodi="http://sodipodi.sourceforge.net/DTD/sodipodi-0.dtd"
   xmlns="http://www.w3.org/2000/svg"
   xmlns:svg="http://www.w3.org/2000/svg">
  <defs
     id="defs874">
    <style
       id="style2">.cls-1{fill:red;}</style>
  </defs>
  <sodipodi:namedview
     id="namedview872"
     pagecolor="#ffffff"
     bordercolor="#666666"
     borderopacity="1.0"
     inkscape:pageshadow="2"
     inkscape:pageopacity="0.0"
     inkscape:pagecheckerboard="0"
     showgrid="false"
     inkscape:zoom="0.29332014"
     inkscape:cx="334.10594"
     inkscape:cy="-202.85004"
     inkscape:window-width="1874"
     inkscape:window-height="1136"
     inkscape:window-x="46"
     inkscape:window-y="27"
     inkscape:window-maximized="1"
     inkscape:current-layer="g876" />
  <g
     inkscape:groupmode="layer"
     inkscape:label="Image"
     id="g876">
    <g
       id="g1031"
       transform="matrix(4.7551192,0,0,4.7551192,206.38068,210.00803)">
      <path
         id="polygon8"
         d="M 0,21.6 H 11.43 V 9.8 H 38.34 V 0 H 0 Z"
         style="fill:#ff0000" />
      <path
         id="polygon10"
         d="M 0,53 H 38.34 V 43.2 H 11.43 V 31.4 H 0 Z"
         style="fill:#ff0000" />
      <path
         id="rect12"
         d="m 11.43,21.6 h 24.610001 v 9.800001 H 11.43 Z"
         style="fill:#ff0000" />
      <path
         style="fill:#ff0000"
         id="path14"
         d="M 86,4.87 A 16.12,16.12 0 0 0 80.32,1.34 23.76,23.76 0 0 0 71.82,0 H 48.14 V 53 H 59.57 V 31.4 h 12.25 a 23.76,23.76 0 0 0 8.46,-1.34 16.12,16.12 0 0 0 5.72,-3.53 13.43,13.43 0 0 0 3.19,-5 17.38,17.38 0 0 0 0,-11.62 A 13.52,13.52 0 0 0 86,4.87 Z m -8,13.86 a 5.7,5.7 0 0 1 -2.26,1.8 11.33,11.33 0 0 1 -3.27,0.85 32,32 0 0 1 -3.86,0.22 H 59.57 V 9.8 h 9.05 a 32,32 0 0 1 3.86,0.22 11,11 0 0 1 3.27,0.86 5.59,5.59 0 0 1 2.25,1.79 5,5 0 0 1 0.86,3 5,5 0 0 1 -0.86,3.06 z"
         class="cls-1" />
      <path
         id="polygon16"
         d="M 155.47,43.2 V 0 h -11.43 v 53 h 38.34 v -9.8 z"
         style="fill:#ff0000" />
      <path
         id="polygon18"
         d="m 97.42,21.6 h 11.43 V 9.8 h 26.91 V 0 H 97.42 Z"
         style="fill:#ff0000" />
      <path
         id="rect20"
         d="M 97.419998,31.4 H 108.85 V 53 H 97.419998 Z"
         style="fill:#ff0000" />
      <path
         id="rect22"
         d="m 108.85,21.6 h 24.61 v 9.800001 h -24.61 z"
         style="fill:#ff0000" />
    </g>
  </g>
</svg>
