<svg id="Calque_1" xmlns="http://www.w3.org/2000/svg" version="1.1" viewBox="0 0 75 79">
    <defs>
        <linearGradient id="Mastodon" data-name="Mastodon" x1="37.1" y1="80" x2="37.1" y2="1" gradientTransform="matrix(1 0 0 -1 0 80)" gradientUnits="userSpaceOnUse">
            <stop offset="0" stop-color="#6364ff"/>
            <stop offset="1" stop-color="#563acc"/>
        </linearGradient>
        <style>
            .st0{fill:#fff}
        </style>
    </defs>
    <path d="M73.8 17.5C72.7 9 65.3 2.3 56.5 1 55 .8 49.4 0 36.4 0c-13 0-15.8.8-17.3 1C10.6 2.3 2.8 8.3.9 16.9c-.9 4.2-1 8.9-.9 13.2.2 6.2.3 12.3.8 18.5.4 4.1 1.1 8.1 2 12.1 1.8 7.4 9.1 13.5 16.2 16 7.6 2.6 15.8 3 23.7 1.2.9-.2 1.7-.4 2.6-.7 1.9-.6 4.1-1.3 5.8-2.5v-6c-5 1.2-10.2 1.8-15.4 1.8-8.9 0-11.3-4.2-12-6-.6-1.5-.9-3.1-1-4.7 4.9 1.2 10 1.8 15.1 1.8h3.7c5.1-.1 10.5-.4 15.6-1.4h.4c7.9-1.5 15.5-6.3 16.3-18.4 0-.5.1-5 .1-5.5 0-1.7.5-11.9 0-18.3Z" style="fill:url(#Mastodon)"/>
    <path class="st0" d="M24.6 26.4h8v-8.3h18.8v-6.9H24.6v15.2zM24.6 48.4h26.8v-6.8H32.6v-8.3h-8v15.1zM32.6 26.4h17.3v6.9H32.6z"/>
</svg>
